M48
; DRILL file {KiCad 7.0.6-0} date 2023 August 23, Wednesday 16:53:15
; FORMAT={-:-/ absolute / inch / decimal}
; #@! TF.CreationDate,2023-08-23T16:53:15-07:00
; #@! TF.GenerationSoftware,Kicad,Pcbnew,7.0.6-0
; #@! TF.FileFunction,Plated,1,2,PTH
FMAT,2
INCH
; #@! TA.AperFunction,Plated,PTH,ComponentDrill
T1C0.0394
%
G90
G05
T1
X6.0Y-3.775
X6.0Y-3.875
X6.0Y-3.975
X6.0Y-4.075
X6.0Y-4.175
X6.0Y-4.275
X6.0Y-4.375
X6.0Y-4.475
X6.1Y-3.775
X6.1Y-3.875
X6.1Y-3.975
X6.1Y-4.075
X6.1Y-4.175
X6.1Y-4.275
X6.1Y-4.375
X6.1Y-4.475
X6.4Y-3.775
X6.4Y-3.875
X6.4Y-3.975
X6.4Y-4.075
X6.4Y-4.175
X6.4Y-4.275
X6.4Y-4.375
X6.4Y-4.475
X6.5Y-3.775
X6.5Y-3.875
X6.5Y-3.975
X6.5Y-4.075
X6.5Y-4.175
X6.5Y-4.275
X6.5Y-4.375
X6.5Y-4.475
T0
M30
