%TF.GenerationSoftware,KiCad,Pcbnew,7.0.6-0*%
%TF.CreationDate,2023-08-23T16:53:17-07:00*%
%TF.ProjectId,IDC_adapter,4944435f-6164-4617-9074-65722e6b6963,1.0.0*%
%TF.SameCoordinates,Original*%
%TF.FileFunction,Copper,L2,Bot*%
%TF.FilePolarity,Positive*%
%FSLAX46Y46*%
G04 Gerber Fmt 4.6, Leading zero omitted, Abs format (unit mm)*
G04 Created by KiCad (PCBNEW 7.0.6-0) date 2023-08-23 16:53:17*
%MOMM*%
%LPD*%
G01*
G04 APERTURE LIST*
G04 Aperture macros list*
%AMRoundRect*
0 Rectangle with rounded corners*
0 $1 Rounding radius*
0 $2 $3 $4 $5 $6 $7 $8 $9 X,Y pos of 4 corners*
0 Add a 4 corners polygon primitive as box body*
4,1,4,$2,$3,$4,$5,$6,$7,$8,$9,$2,$3,0*
0 Add four circle primitives for the rounded corners*
1,1,$1+$1,$2,$3*
1,1,$1+$1,$4,$5*
1,1,$1+$1,$6,$7*
1,1,$1+$1,$8,$9*
0 Add four rect primitives between the rounded corners*
20,1,$1+$1,$2,$3,$4,$5,0*
20,1,$1+$1,$4,$5,$6,$7,0*
20,1,$1+$1,$6,$7,$8,$9,0*
20,1,$1+$1,$8,$9,$2,$3,0*%
G04 Aperture macros list end*
%TA.AperFunction,ComponentPad*%
%ADD10C,1.700000*%
%TD*%
%TA.AperFunction,ComponentPad*%
%ADD11RoundRect,0.250000X0.600000X0.600000X-0.600000X0.600000X-0.600000X-0.600000X0.600000X-0.600000X0*%
%TD*%
%TA.AperFunction,ComponentPad*%
%ADD12RoundRect,0.250000X-0.600000X-0.600000X0.600000X-0.600000X0.600000X0.600000X-0.600000X0.600000X0*%
%TD*%
%TA.AperFunction,Conductor*%
%ADD13C,0.250000*%
%TD*%
G04 APERTURE END LIST*
D10*
%TO.P,J2,16,Pin_16*%
%TO.N,Net-(J1-Pin_16)*%
X162560000Y-95885000D03*
%TO.P,J2,15,Pin_15*%
%TO.N,Net-(J1-Pin_15)*%
X165100000Y-95885000D03*
%TO.P,J2,14,Pin_14*%
%TO.N,Net-(J1-Pin_14)*%
X162560000Y-98425000D03*
%TO.P,J2,13,Pin_13*%
%TO.N,Net-(J1-Pin_13)*%
X165100000Y-98425000D03*
%TO.P,J2,12,Pin_12*%
%TO.N,Net-(J1-Pin_12)*%
X162560000Y-100965000D03*
%TO.P,J2,11,Pin_11*%
%TO.N,Net-(J1-Pin_11)*%
X165100000Y-100965000D03*
%TO.P,J2,10,Pin_10*%
%TO.N,Net-(J1-Pin_10)*%
X162560000Y-103505000D03*
%TO.P,J2,9,Pin_9*%
%TO.N,Net-(J1-Pin_9)*%
X165100000Y-103505000D03*
%TO.P,J2,8,Pin_8*%
%TO.N,Net-(J1-Pin_8)*%
X162560000Y-106045000D03*
%TO.P,J2,7,Pin_7*%
%TO.N,Net-(J1-Pin_7)*%
X165100000Y-106045000D03*
%TO.P,J2,6,Pin_6*%
%TO.N,Net-(J1-Pin_6)*%
X162560000Y-108585000D03*
%TO.P,J2,5,Pin_5*%
%TO.N,Net-(J1-Pin_5)*%
X165100000Y-108585000D03*
%TO.P,J2,4,Pin_4*%
%TO.N,Net-(J1-Pin_4)*%
X162560000Y-111125000D03*
%TO.P,J2,3,Pin_3*%
%TO.N,Net-(J1-Pin_3)*%
X165100000Y-111125000D03*
%TO.P,J2,2,Pin_2*%
%TO.N,Net-(J1-Pin_2)*%
X162560000Y-113665000D03*
D11*
%TO.P,J2,1,Pin_1*%
%TO.N,Net-(J1-Pin_1)*%
X165100000Y-113665000D03*
%TD*%
D12*
%TO.P,J1,1,Pin_1*%
%TO.N,Net-(J1-Pin_1)*%
X152400000Y-95885000D03*
D10*
%TO.P,J1,2,Pin_2*%
%TO.N,Net-(J1-Pin_2)*%
X154940000Y-95885000D03*
%TO.P,J1,3,Pin_3*%
%TO.N,Net-(J1-Pin_3)*%
X152400000Y-98425000D03*
%TO.P,J1,4,Pin_4*%
%TO.N,Net-(J1-Pin_4)*%
X154940000Y-98425000D03*
%TO.P,J1,5,Pin_5*%
%TO.N,Net-(J1-Pin_5)*%
X152400000Y-100965000D03*
%TO.P,J1,6,Pin_6*%
%TO.N,Net-(J1-Pin_6)*%
X154940000Y-100965000D03*
%TO.P,J1,7,Pin_7*%
%TO.N,Net-(J1-Pin_7)*%
X152400000Y-103505000D03*
%TO.P,J1,8,Pin_8*%
%TO.N,Net-(J1-Pin_8)*%
X154940000Y-103505000D03*
%TO.P,J1,9,Pin_9*%
%TO.N,Net-(J1-Pin_9)*%
X152400000Y-106045000D03*
%TO.P,J1,10,Pin_10*%
%TO.N,Net-(J1-Pin_10)*%
X154940000Y-106045000D03*
%TO.P,J1,11,Pin_11*%
%TO.N,Net-(J1-Pin_11)*%
X152400000Y-108585000D03*
%TO.P,J1,12,Pin_12*%
%TO.N,Net-(J1-Pin_12)*%
X154940000Y-108585000D03*
%TO.P,J1,13,Pin_13*%
%TO.N,Net-(J1-Pin_13)*%
X152400000Y-111125000D03*
%TO.P,J1,14,Pin_14*%
%TO.N,Net-(J1-Pin_14)*%
X154940000Y-111125000D03*
%TO.P,J1,15,Pin_15*%
%TO.N,Net-(J1-Pin_15)*%
X152400000Y-113665000D03*
%TO.P,J1,16,Pin_16*%
%TO.N,Net-(J1-Pin_16)*%
X154940000Y-113665000D03*
%TD*%
D13*
%TO.N,Net-(J1-Pin_2)*%
X149225000Y-97155000D02*
X153670000Y-97155000D01*
X145415000Y-116213376D02*
X145415000Y-100965000D01*
X149225000Y-97155000D02*
X145415000Y-100965000D01*
%TO.N,Net-(J1-Pin_4)*%
X154940000Y-98425000D02*
X153670000Y-99695000D01*
X160655000Y-115576980D02*
X160655000Y-111760000D01*
X161290000Y-111125000D02*
X162560000Y-111125000D01*
X153670000Y-99695000D02*
X149040000Y-99695000D01*
X148768020Y-118930000D02*
X157301980Y-118930000D01*
X149040000Y-99695000D02*
X145865000Y-102870000D01*
X145865000Y-102870000D02*
X145865000Y-116026980D01*
X145865000Y-116026980D02*
X148768020Y-118930000D01*
X157301980Y-118930000D02*
X160655000Y-115576980D01*
X160655000Y-111760000D02*
X161290000Y-111125000D01*
%TO.N,Net-(J1-Pin_8)*%
X148765000Y-104680000D02*
X146765000Y-106680000D01*
X146765000Y-115654188D02*
X149140812Y-118030000D01*
X153765000Y-104680000D02*
X148765000Y-104680000D01*
X154940000Y-103505000D02*
X153765000Y-104680000D01*
X159755000Y-106945000D02*
X160655000Y-106045000D01*
X146765000Y-106680000D02*
X146765000Y-115654188D01*
X149140812Y-118030000D02*
X156929188Y-118030000D01*
X156929188Y-118030000D02*
X159755000Y-115204188D01*
X159755000Y-115204188D02*
X159755000Y-106945000D01*
X160655000Y-106045000D02*
X162560000Y-106045000D01*
%TO.N,Net-(J1-Pin_6)*%
X154940000Y-100965000D02*
X153765000Y-102140000D01*
X153765000Y-102140000D02*
X148950000Y-102140000D01*
X160205000Y-109405000D02*
X161025000Y-108585000D01*
X148950000Y-102140000D02*
X146315000Y-104775000D01*
X157115584Y-118480000D02*
X160205000Y-115390584D01*
X146315000Y-104775000D02*
X146315000Y-115840584D01*
X146315000Y-115840584D02*
X148954416Y-118480000D01*
X161025000Y-108585000D02*
X162560000Y-108585000D01*
X148954416Y-118480000D02*
X157115584Y-118480000D01*
X160205000Y-115390584D02*
X160205000Y-109405000D01*
%TO.N,Net-(J1-Pin_10)*%
X154940000Y-106045000D02*
X153765000Y-107220000D01*
X147320000Y-115572792D02*
X149327208Y-117580000D01*
X159305000Y-104855000D02*
X160655000Y-103505000D01*
X160655000Y-103505000D02*
X162560000Y-103505000D01*
X153765000Y-107220000D02*
X149225000Y-107220000D01*
X147320000Y-109125000D02*
X147320000Y-115572792D01*
X149225000Y-107220000D02*
X147320000Y-109125000D01*
X149327208Y-117580000D02*
X156742792Y-117580000D01*
X156742792Y-117580000D02*
X159305000Y-115017792D01*
X159305000Y-115017792D02*
X159305000Y-104855000D01*
%TO.N,Net-(J1-Pin_16)*%
X160655000Y-95885000D02*
X162560000Y-95885000D01*
X157480000Y-112395000D02*
X157480000Y-99060000D01*
X160655000Y-95885000D02*
X157480000Y-99060000D01*
%TO.N,Net-(J1-Pin_14)*%
X158115000Y-100965000D02*
X158115000Y-114935000D01*
X162560000Y-98425000D02*
X160655000Y-98425000D01*
X160655000Y-98425000D02*
X158115000Y-100965000D01*
%TO.N,Net-(J1-Pin_12)*%
X162560000Y-100965000D02*
X160655000Y-100965000D01*
X158750000Y-102870000D02*
X158750000Y-114936396D01*
X160655000Y-100965000D02*
X158750000Y-102870000D01*
%TO.N,Net-(J1-Pin_16)*%
X154940000Y-113665000D02*
X156210000Y-113665000D01*
X156210000Y-113665000D02*
X157480000Y-112395000D01*
%TO.N,Net-(J1-Pin_2)*%
X157488376Y-119380000D02*
X148581624Y-119380000D01*
X162560000Y-114308376D02*
X157488376Y-119380000D01*
X148581624Y-119380000D02*
X145415000Y-116213376D01*
X162560000Y-113665000D02*
X162560000Y-114308376D01*
X153670000Y-97155000D02*
X154940000Y-95885000D01*
%TO.N,Net-(J1-Pin_12)*%
X147770000Y-115386396D02*
X147770000Y-111215000D01*
X149513604Y-117130000D02*
X147770000Y-115386396D01*
X158750000Y-114936396D02*
X156556396Y-117130000D01*
X149225000Y-109760000D02*
X153765000Y-109760000D01*
X156556396Y-117130000D02*
X149513604Y-117130000D01*
X147770000Y-111215000D02*
X149225000Y-109760000D01*
X153765000Y-109760000D02*
X154940000Y-108585000D01*
%TO.N,Net-(J1-Pin_14)*%
X149225000Y-112300000D02*
X153765000Y-112300000D01*
X148220000Y-113305000D02*
X149225000Y-112300000D01*
X148220000Y-115200000D02*
X148220000Y-113305000D01*
X158115000Y-114935000D02*
X156370000Y-116680000D01*
X153765000Y-112300000D02*
X154940000Y-111125000D01*
X156370000Y-116680000D02*
X149700000Y-116680000D01*
X149700000Y-116680000D02*
X148220000Y-115200000D01*
%TD*%
M02*
