M48
; DRILL file {KiCad 7.0.6-0} date 2023 August 17, Thursday 19:45:33
; FORMAT={-:-/ absolute / inch / decimal}
; #@! TF.CreationDate,2023-08-17T19:45:33-07:00
; #@! TF.GenerationSoftware,Kicad,Pcbnew,7.0.6-0
; #@! TF.FileFunction,Plated,1,2,PTH
FMAT,2
INCH
; #@! TA.AperFunction,Plated,PTH,ComponentDrill
T1C0.0394
%
G90
G05
T1
X5.85Y-3.775
X5.85Y-3.875
X5.85Y-3.975
X5.85Y-4.075
X5.85Y-4.175
X5.85Y-4.275
X5.85Y-4.375
X5.85Y-4.475
X5.95Y-3.775
X5.95Y-3.875
X5.95Y-3.975
X5.95Y-4.075
X5.95Y-4.175
X5.95Y-4.275
X5.95Y-4.375
X5.95Y-4.475
X6.45Y-3.775
X6.45Y-3.875
X6.45Y-3.975
X6.45Y-4.075
X6.45Y-4.175
X6.45Y-4.275
X6.45Y-4.375
X6.45Y-4.475
X6.55Y-3.775
X6.55Y-3.875
X6.55Y-3.975
X6.55Y-4.075
X6.55Y-4.175
X6.55Y-4.275
X6.55Y-4.375
X6.55Y-4.475
T0
M30
